<svg height="512" viewBox="0 0 64 64" style="fill:#3b6faf;" width="512" xmlns="http://www.w3.org/2000/svg"><circle cx="52" cy="5" r="2"/><circle cx="42" cy="5" r="2"/><circle cx="32" cy="5" r="2"/><circle cx="22" cy="5" r="2"/><circle cx="12" cy="5" r="2"/><path d="m43.8 21.783 7.2-7.2v-4.583h-8v1a1 1 0 0 1 -.293.707l-3.834 3.834a.982.982 0 0 1 .127.459v1.219l3.242.811a1 1 0 0 1 .758.97v2.382zm.2-9.783h5v2h-5z"/><path d="m31 10h-8v.586l3.541 3.541a.982.982 0 0 1 .459-.127h3a1 1 0 0 1 .707.293l.293.293z"/><path d="m33 14.586.293-.293a1 1 0 0 1 .707-.293h3a.982.982 0 0 1 .459.127l3.541-3.541v-.586h-8z"/><path d="m33 32.586 1.414 1.414h1.051l1.7-2.555a1 1 0 0 1 .835-.445h1.586l.414-.414v-2.172l-1.707-1.707a1 1 0 0 1 -.293-.707v-1h2v.586l1.27 1.27 1.73-.577v-2.661l-1.236-.618h-1.764v-2h1v-1.219l-2.693-.674-1.307 1.307v1.586h-2v-2a1 1 0 0 1 .293-.707l1.707-1.707v-1.172l-.414-.414h-2.172l-1.414 1.414zm2-4v-2.586h2v3a1 1 0 0 1 -.293.707l-1 1-1.414-1.414z"/><path d="m13 10v4.586l7.2 7.2.8-.4v-2.386a1 1 0 0 1 .758-.97l3.242-.811v-1.219a.982.982 0 0 1 .127-.459l-3.834-3.834a1 1 0 0 1 -.293-.707v-1zm7 4h-5v-2h5z"/><path d="m25.707 26.707-1.707 1.707v2.172l.414.414h1.586a1 1 0 0 1 .832.445l1.703 2.555h1.051l1.414-1.414v-15.172l-1.414-1.414h-2.172l-.414.414v1.172l1.707 1.707a1 1 0 0 1 .293.707v2h-2v-1.586l-1.307-1.307-2.693.674v1.219h1v2h-1.764l-1.236.618v2.661l1.73.577 1.27-1.27v-.586h2v1a1 1 0 0 1 -.293.707zm1.293-.707h2v2.586l.707.707-1.414 1.414-1-1a1 1 0 0 1 -.293-.707z"/><path d="m10 11v31h44v-31a1 1 0 0 0 -1-1v5a1 1 0 0 1 -.293.707l-7.707 7.707v3.586a1 1 0 0 1 -.684.949l-2.316.772v2.279a1 1 0 0 1 -.293.707l-1 1a1 1 0 0 1 -.707.293h-1.465l-1.7 2.555a1 1 0 0 1 -.835.445h-2a1 1 0 0 1 -.707-.293l-1.293-1.293-1.293 1.293a1 1 0 0 1 -.707.293h-2a1 1 0 0 1 -.832-.445l-1.703-2.555h-1.465a1 1 0 0 1 -.707-.293l-1-1a1 1 0 0 1 -.293-.707v-2.279l-2.316-.772a1 1 0 0 1 -.684-.949v-3.586l-7.707-7.707a1 1 0 0 1 -.293-.707v-5a1 1 0 0 0 -1 1zm2 9h2v18h36v-18h2v19a1 1 0 0 1 -1 1h-38a1 1 0 0 1 -1-1z"/><path d="m59.382 54-5-10h-44.764l-5 10zm-5.382-2h-2v-2h2zm-3-6h2v2h-2zm-1 6h-2v-2h2zm-3-6h2v2h-2zm-4 0h2v2h-2zm-4 0h2v2h-2zm-4 0h2v2h-2zm-4 0h2v2h-2zm-4 0h2v2h-2zm-4 0h2v2h-2zm-4 0h2v2h-2zm-1 4h28v2h-28zm-3-4h2v2h-2zm-1 4h2v2h-2zm-3-4h2v2h-2zm-1 4h2v2h-2z"/><path d="m29 56h6v1h-6z"/><path d="m4 60h56v-4h-23v1a2 2 0 0 1 -2 2h-6a2 2 0 0 1 -2-2v-1h-23z"/><path d="m58 30h2v2h-2z"/><path d="m4 30h2v2h-2z"/><path d="m4 24h2v2h-2z"/><path d="m4 18h2v2h-2z"/><path d="m58 24h2v2h-2z"/><path d="m58 18h2v2h-2z"/><path d="m57 5h2v2h-2z"/><path d="m5 5h2v2h-2z"/></svg>